<svg version="1.1" id="Layer_1" xmlns="http://www.w3.org/2000/svg"
	xmlns:xlink="http://www.w3.org/1999/xlink" x="0px" y="0px"
	viewBox="0 0 250.35 62.68" style="enable-background:new 0 0 250.35 62.68;" xml:space="preserve">
<style type="text/css">
	.st0{fill-rule:evenodd;clip-rule:evenodd;fill:#FFFFFF;}
	.st1{fill:#FFFFFF;}
</style>
<g>
	<g>
		<g>
			<g>
				<g>
					<path class="st0" d="M26.93,21.48c0.95-0.86,1.42-1.99,1.42-3.42c0-1.38-0.43-2.46-1.31-3.24c-0.87-0.78-2.22-1.17-4.02-1.17
						c-0.79,0-1.75,0.08-2.88,0.24c-0.09,3.01-0.14,5.84-0.15,8.51c1.12,0.24,2.09,0.36,2.9,0.36
						C24.63,22.76,25.98,22.34,26.93,21.48z"/>
					<path class="st0" d="M30.47,5.87C16.4,5.87,5,17.28,5,31.34c0,14.07,11.4,25.47,25.47,25.47c14.07,0,25.47-11.4,25.47-25.47
						C55.93,17.28,44.53,5.87,30.47,5.87z M44.42,32.03c1.85,0.11,3.06,0.17,3.63,0.17c0.68,0,1.82-0.06,3.42-0.17v0.9
						c-1.14,0.3-1.84,0.57-2.12,0.79c-0.18,0.15-0.35,0.4-0.51,0.76c-0.26,0.58-1.42,3.84-3.49,9.78c-0.06,0.15-1.14,3.38-3.24,9.68
						l-0.25,0.14h-0.83l-3.67-10.43c-0.33-0.93-0.77-2.1-1.31-3.51c-1.33,3.48-2.99,8.13-4.99,13.94h-1.08
						c-1.63-4.83-3.4-9.91-5.31-15.24c-0.94-2.63-1.55-4.18-1.82-4.62c-0.14-0.23-0.32-0.43-0.54-0.58
						c-0.22-0.14-0.61-0.29-1.18-0.46c-2.61,0-5.53,0.02-7.83,0l0.01-0.71c0.41-0.1,0.72-0.16,0.92-0.19
						c1.4-0.26,2.18-0.46,2.34-0.58c0.26-0.22,0.4-0.8,0.4-1.75l0.05-7.22l-0.02-7.23v-0.33c0-1.67-2.09-2.51-3.44-2.8
						c1.77-0.12,3.08-0.02,5-0.04l6.29-0.06c2.34,0,4.04,0.46,5.11,1.39c1.08,0.94,1.61,2.21,1.61,3.81c0,1.86-0.72,3.42-2.16,4.68
						c-1.44,1.26-3.43,1.89-5.95,1.89c-0.98,0-2.13-0.13-3.47-0.39c-0.01,1.55-0.01,2.66-0.01,3.33c0,2.53,0.05,3.99,0.16,4.4
						c0.04,0.17,0.14,0.31,0.3,0.39c0.3,0.16,0.91,0.35,2.99,0.38c0.02,0,0.04,0,0.06,0.01c0.46,0.01,0.81,0.02,1.05,0.02
						c0.85,0,2.21-0.06,4.08-0.17v0.9c-1.19,0.3-1.88,0.54-2.08,0.7c-0.2,0.16-0.31,0.36-0.31,0.59c0,0.21,0.21,0.95,0.63,2.22
						c1.85,5.73,3.3,9.95,4.33,12.65l4.09-11.22c-0.66-1.85-1.12-2.99-1.35-3.41c-0.23-0.42-0.47-0.7-0.72-0.85
						c-0.25-0.16-0.95-0.38-2.12-0.69v-0.9c1.85,0.11,3.29,0.17,4.3,0.17c1.07,0,2.45-0.06,4.16-0.17v0.9l-0.53,0.14
						c-0.83,0.16-1.36,0.34-1.6,0.54c-0.15,0.13-0.22,0.33-0.22,0.59c0,0.11,0.01,0.22,0.03,0.32c0.06,0.26,0.61,1.94,1.66,5.02
						l3.21,9.3c0.69-1.93,1.51-4.39,2.48-7.39l2.22-6.94c0.03-0.15,0.05-0.27,0.05-0.38c0-0.18-0.06-0.32-0.16-0.4
						c-0.11-0.09-0.85-0.35-2.23-0.78V32.03"/>
				</g>
				<path class="st0" d="M30.47,1.3c13.7,0,25.25,9.17,28.86,21.7h-2.51C53.28,11.81,42.82,3.7,30.47,3.7
					C18.11,3.7,7.65,11.81,4.11,23H1.6C5.22,10.47,16.77,1.3,30.47,1.3L30.47,1.3z M59.33,39.69c-3.62,12.53-15.17,21.7-28.86,21.7
					c-13.7,0-25.25-9.17-28.86-21.7h2.51c3.54,11.19,14,19.29,26.36,19.29c12.36,0,22.82-8.11,26.35-19.29H59.33z"/>
			</g>
		</g>
	</g>
	<g>
		<g>
			<g>
				<path class="st1" d="M78.26,6.06v19.68H73.5V6.06H78.26z"/>
				<path class="st1" d="M99.02,25.74h-4.76L86.3,13.66v12.08h-4.76V6.06h4.76l7.96,12.19V6.06h4.76V25.74z"/>
				<path class="st1" d="M115.09,23.07c-0.53,0.87-1.31,1.57-2.34,2.09c-1.03,0.52-2.28,0.78-3.74,0.78c-2.21,0-4.03-0.54-5.46-1.61
					c-1.43-1.08-2.21-2.58-2.34-4.51h5.07c0.07,0.74,0.34,1.33,0.79,1.75c0.45,0.43,1.03,0.64,1.74,0.64c0.61,0,1.09-0.17,1.45-0.5
					c0.35-0.33,0.53-0.78,0.53-1.34c0-0.5-0.16-0.92-0.49-1.25s-0.73-0.61-1.21-0.82c-0.48-0.21-1.15-0.47-2-0.77
					c-1.24-0.43-2.26-0.84-3.05-1.24c-0.79-0.4-1.47-0.99-2.03-1.78s-0.85-1.81-0.85-3.08c0-1.17,0.3-2.18,0.89-3.03
					c0.59-0.85,1.41-1.51,2.46-1.96c1.05-0.45,2.25-0.68,3.6-0.68c2.19,0,3.93,0.52,5.22,1.56c1.29,1.04,2.02,2.47,2.18,4.29h-5.15
					c-0.09-0.65-0.33-1.16-0.71-1.54c-0.38-0.38-0.9-0.57-1.54-0.57c-0.56,0-1.01,0.15-1.35,0.45s-0.51,0.73-0.51,1.31
					c0,0.46,0.15,0.86,0.46,1.18c0.31,0.32,0.69,0.59,1.16,0.79c0.46,0.2,1.13,0.46,2,0.78c1.26,0.43,2.29,0.85,3.09,1.27
					c0.8,0.42,1.48,1.03,2.06,1.82c0.58,0.8,0.86,1.84,0.86,3.12C115.89,21.24,115.62,22.2,115.09,23.07z"/>
				<path class="st1" d="M131.56,6.06v3.79h-5.34v15.89h-4.79V9.85h-5.29V6.06H131.56z"/>
				<path class="st1" d="M138.32,6.06v19.68h-4.76V6.06H138.32z"/>
				<path class="st1" d="M155.74,6.06v3.79h-5.34v15.89h-4.79V9.85h-5.29V6.06H155.74z"/>
				<path class="st1" d="M162.36,6.06v11.35c0,1.3,0.29,2.29,0.88,2.98c0.58,0.69,1.43,1.03,2.55,1.03s1.96-0.34,2.55-1.03
					c0.58-0.69,0.88-1.68,0.88-2.98V6.06h4.76v11.35c0,1.86-0.36,3.42-1.09,4.69s-1.71,2.23-2.96,2.87s-2.67,0.96-4.24,0.96
					c-1.58,0-2.97-0.32-4.17-0.95c-1.21-0.63-2.15-1.59-2.84-2.87s-1.03-2.85-1.03-4.7V6.06H162.36z"/>
				<path class="st1" d="M191.28,6.06v3.79h-5.34v15.89h-4.79V9.85h-5.29V6.06H191.28z"/>
				<path class="st1" d="M198.04,9.85v4.12h6.65v3.59h-6.65v4.37h7.49v3.81h-12.25V6.06h12.25v3.79H198.04z"/>
				<path class="st1" d="M228.2,7.05c1.51,0.86,2.7,2.06,3.58,3.59s1.31,3.26,1.31,5.19c0,1.93-0.44,3.67-1.32,5.2
					c-0.88,1.54-2.08,2.74-3.59,3.6c-1.51,0.86-3.19,1.29-5.02,1.29s-3.51-0.43-5.02-1.29c-1.51-0.86-2.71-2.06-3.59-3.6
					c-0.88-1.54-1.32-3.27-1.32-5.2c0-1.93,0.44-3.66,1.32-5.19c0.88-1.53,2.08-2.73,3.59-3.59c1.51-0.86,3.19-1.29,5.02-1.29
					C225,5.76,226.69,6.19,228.2,7.05z M219.43,11.7c-0.92,1.01-1.38,2.39-1.38,4.13c0,1.73,0.46,3.1,1.38,4.12
					c0.92,1.02,2.16,1.53,3.71,1.53c1.54,0,2.77-0.51,3.7-1.53c0.93-1.02,1.39-2.39,1.39-4.12s-0.46-3.1-1.38-4.12
					c-0.92-1.02-2.16-1.53-3.72-1.53S220.35,10.69,219.43,11.7z"/>
				<path class="st1" d="M248.58,6.06v3.79h-8.07v4.31h6.23v3.62h-6.23v7.96h-4.76V6.06H248.58z"/>
			</g>
		</g>
		<g>
			<path class="st1" d="M78.62,36.15v20.66h-5V36.15H78.62z"/>
			<path class="st1" d="M100.42,56.81h-5l-8.36-12.68v12.68h-5V36.15h5l8.36,12.8v-12.8h5V56.81z"/>
			<path class="st1" d="M122.22,56.81h-5l-8.36-12.68v12.68h-5V36.15h5l8.36,12.8v-12.8h5V56.81z"/>
			<path class="st1" d="M140.79,37.18c1.59,0.91,2.84,2.16,3.75,3.77s1.37,3.42,1.37,5.45s-0.46,3.85-1.39,5.46
				c-0.92,1.62-2.18,2.88-3.77,3.78s-3.35,1.36-5.27,1.36s-3.69-0.45-5.27-1.36c-1.59-0.91-2.84-2.17-3.77-3.78
				c-0.93-1.62-1.39-3.44-1.39-5.46s0.46-3.84,1.39-5.45c0.92-1.61,2.18-2.86,3.77-3.77c1.59-0.91,3.35-1.36,5.27-1.36
				C137.43,35.83,139.2,36.28,140.79,37.18z M131.58,42.06c-0.96,1.06-1.45,2.51-1.45,4.34c0,1.81,0.48,3.25,1.45,4.33
				c0.96,1.07,2.26,1.61,3.9,1.61c1.62,0,2.91-0.54,3.89-1.61c0.97-1.07,1.46-2.51,1.46-4.33s-0.48-3.25-1.45-4.33
				c-0.96-1.07-2.26-1.61-3.9-1.61S132.55,41,131.58,42.06z"/>
			<path class="st1" d="M150.83,36.15l5.06,15.55l5.06-15.55h5.35l-7.19,20.66h-6.46l-7.16-20.66H150.83z"/>
			<path class="st1" d="M176.92,53.04h-7.74l-1.29,3.77h-5.26l7.57-20.51h5.76l7.57,20.51h-5.32L176.92,53.04z M175.64,49.24
				l-2.57-7.6l-2.6,7.6H175.64z"/>
			<path class="st1" d="M196.79,36.15v3.97h-5.61v16.69h-5.03V40.12h-5.55v-3.97H196.79z"/>
			<path class="st1" d="M203.89,36.15v20.66h-5V36.15H203.89z"/>
			<path class="st1" d="M222.46,37.18c1.59,0.91,2.84,2.16,3.75,3.77s1.37,3.42,1.37,5.45s-0.46,3.85-1.39,5.46
				c-0.92,1.62-2.18,2.88-3.77,3.78s-3.35,1.36-5.27,1.36s-3.69-0.45-5.27-1.36c-1.59-0.91-2.84-2.17-3.77-3.78
				c-0.93-1.62-1.39-3.44-1.39-5.46s0.46-3.84,1.39-5.45c0.92-1.61,2.18-2.86,3.77-3.77c1.59-0.91,3.35-1.36,5.27-1.36
				C219.11,35.83,220.88,36.28,222.46,37.18z M213.26,42.06c-0.96,1.06-1.45,2.51-1.45,4.34c0,1.81,0.48,3.25,1.45,4.33
				c0.96,1.07,2.26,1.61,3.9,1.61c1.62,0,2.91-0.54,3.89-1.61c0.97-1.07,1.46-2.51,1.46-4.33s-0.48-3.25-1.45-4.33
				c-0.96-1.07-2.26-1.61-3.9-1.61S214.22,41,213.26,42.06z"/>
			<path class="st1" d="M248.75,56.81h-5l-8.36-12.68v12.68h-5V36.15h5l8.36,12.8v-12.8h5V56.81z"/>
		</g>
	</g>
</g>
</svg>